<mxfile host="app.diagrams.net" modified="2023-02-04T15:18:47.964Z" agent="5.0 (Windows NT 10.0; Win64; x64) AppleWebKit/537.36 (KHTML, like Gecko) Chrome/109.0.0.0 Safari/537.36" etag="3B6k538_o5_i9gLo9WZD" version="20.8.16" type="github">
  <diagram name="Page-1" id="DMJ7bUIsR_-YgkHWpAvR">
    <mxGraphModel dx="2284" dy="1888" grid="1" gridSize="10" guides="1" tooltips="1" connect="1" arrows="1" fold="1" page="1" pageScale="1" pageWidth="850" pageHeight="1100" math="0" shadow="0">
      <root>
        <mxCell id="0" />
        <mxCell id="1" parent="0" />
        <mxCell id="iwWK1xglDD3d6xaMqNbU-1" value="Webpage" style="html=1;overflow=block;blockSpacing=1;whiteSpace=wrap;fontSize=16.7;fontColor=#3a414a;spacing=3.8;strokeColor=#3a414a;strokeOpacity=100;rounded=1;absoluteArcSize=1;arcSize=9;strokeWidth=0.8;lucidId=4w~tclm1L4wu;" vertex="1" parent="1">
          <mxGeometry x="181" y="-298" width="120" height="120" as="geometry" />
        </mxCell>
        <mxCell id="iwWK1xglDD3d6xaMqNbU-2" value="&lt;ol style=&quot;margin: 0px; padding-left: 10px;list-style-position: inside; list-style-type:decimal&quot;&gt;&lt;li style=&quot;text-align:left;color:#3a414a;font-size:16.7px;&quot;&gt;&lt;span style=&quot;margin-left: 0px;margin-top: -2px;&quot;&gt;&lt;span style=&quot;font-size:16.7px;color:#3a414a;&quot;&gt;Research&lt;/span&gt;&lt;/span&gt;&lt;/li&gt;&lt;/ol&gt;" style="html=1;overflow=block;blockSpacing=1;whiteSpace=wrap;fontSize=13;spacing=9;strokeColor=#3a414a;strokeOpacity=100;rounded=1;absoluteArcSize=1;arcSize=9;strokeWidth=0.8;lucidId=4w~tLNm2HxDH;" vertex="1" parent="1">
          <mxGeometry x="-74" y="-103" width="120" height="90" as="geometry" />
        </mxCell>
        <mxCell id="iwWK1xglDD3d6xaMqNbU-3" value="2. Design" style="html=1;overflow=block;blockSpacing=1;whiteSpace=wrap;fontSize=16.7;fontColor=#3a414a;spacing=9;strokeColor=#3a414a;strokeOpacity=100;rounded=1;absoluteArcSize=1;arcSize=9;strokeWidth=0.8;lucidId=4w~tLiU_s1lb;" vertex="1" parent="1">
          <mxGeometry x="151" y="-103" width="120" height="90" as="geometry" />
        </mxCell>
        <mxCell id="iwWK1xglDD3d6xaMqNbU-4" value="3. Build" style="html=1;overflow=block;blockSpacing=1;whiteSpace=wrap;fontSize=16.7;fontColor=#3a414a;spacing=9;strokeColor=#3a414a;strokeOpacity=100;rounded=1;absoluteArcSize=1;arcSize=9;strokeWidth=0.8;lucidId=4w~tjqJh0d.E;" vertex="1" parent="1">
          <mxGeometry x="406" y="-103" width="120" height="90" as="geometry" />
        </mxCell>
        <mxCell id="iwWK1xglDD3d6xaMqNbU-5" value="4. Deployment" style="html=1;overflow=block;blockSpacing=1;whiteSpace=wrap;fontSize=16.7;fontColor=#3a414a;spacing=9;strokeColor=#3a414a;strokeOpacity=100;rounded=1;absoluteArcSize=1;arcSize=9;strokeWidth=0.8;lucidId=4w~txu2eKiBd;" vertex="1" parent="1">
          <mxGeometry x="661" y="-103" width="120" height="90" as="geometry" />
        </mxCell>
        <mxCell id="iwWK1xglDD3d6xaMqNbU-6" value="" style="html=1;jettySize=18;whiteSpace=wrap;overflow=block;blockSpacing=1;fontSize=13;strokeColor=#3a414a;strokeOpacity=100;strokeWidth=0.8;rounded=1;arcSize=12;edgeStyle=orthogonalEdgeStyle;startArrow=none;endArrow=block;endFill=1;exitX=0.5;exitY=1.003;exitPerimeter=0;entryX=0.5;entryY=-0.004;entryPerimeter=0;lucidId=4w~t3CSjfnDc;" edge="1" parent="1" source="iwWK1xglDD3d6xaMqNbU-1" target="iwWK1xglDD3d6xaMqNbU-2">
          <mxGeometry width="100" height="100" relative="1" as="geometry">
            <Array as="points" />
          </mxGeometry>
        </mxCell>
        <mxCell id="iwWK1xglDD3d6xaMqNbU-7" value="" style="html=1;jettySize=18;whiteSpace=wrap;overflow=block;blockSpacing=1;fontSize=13;strokeColor=#3a414a;strokeOpacity=100;strokeWidth=0.8;rounded=1;arcSize=12;edgeStyle=orthogonalEdgeStyle;startArrow=none;endArrow=block;endFill=1;exitX=0.5;exitY=1.003;exitPerimeter=0;entryX=0.5;entryY=-0.004;entryPerimeter=0;lucidId=4w~tixf8.-Pk;" edge="1" parent="1" source="iwWK1xglDD3d6xaMqNbU-1" target="iwWK1xglDD3d6xaMqNbU-3">
          <mxGeometry width="100" height="100" relative="1" as="geometry">
            <Array as="points" />
          </mxGeometry>
        </mxCell>
        <mxCell id="iwWK1xglDD3d6xaMqNbU-8" value="" style="html=1;jettySize=18;whiteSpace=wrap;overflow=block;blockSpacing=1;fontSize=13;strokeColor=#3a414a;strokeOpacity=100;strokeWidth=0.8;rounded=1;arcSize=12;edgeStyle=orthogonalEdgeStyle;startArrow=none;endArrow=block;endFill=1;exitX=0.5;exitY=1.003;exitPerimeter=0;entryX=0.5;entryY=-0.004;entryPerimeter=0;lucidId=4w~tOq5sJpw.;" edge="1" parent="1" source="iwWK1xglDD3d6xaMqNbU-1" target="iwWK1xglDD3d6xaMqNbU-4">
          <mxGeometry width="100" height="100" relative="1" as="geometry">
            <Array as="points" />
          </mxGeometry>
        </mxCell>
        <mxCell id="iwWK1xglDD3d6xaMqNbU-9" value="" style="html=1;jettySize=18;whiteSpace=wrap;overflow=block;blockSpacing=1;fontSize=13;strokeColor=#3a414a;strokeOpacity=100;strokeWidth=0.8;rounded=1;arcSize=12;edgeStyle=orthogonalEdgeStyle;startArrow=none;endArrow=block;endFill=1;exitX=0.5;exitY=1.003;exitPerimeter=0;entryX=0.5;entryY=-0.004;entryPerimeter=0;lucidId=4w~treEaC6rt;" edge="1" parent="1" source="iwWK1xglDD3d6xaMqNbU-1" target="iwWK1xglDD3d6xaMqNbU-5">
          <mxGeometry width="100" height="100" relative="1" as="geometry">
            <Array as="points" />
          </mxGeometry>
        </mxCell>
        <mxCell id="iwWK1xglDD3d6xaMqNbU-10" value="1.1 Research Guidelines" style="html=1;overflow=block;blockSpacing=1;whiteSpace=wrap;fontSize=16.7;fontColor=#3a414a;spacing=9;strokeColor=#3a414a;strokeOpacity=100;rounded=1;absoluteArcSize=1;arcSize=9;strokeWidth=0.8;lucidId=4w~tvd9EQL_~;" vertex="1" parent="1">
          <mxGeometry x="-14" y="17" width="120" height="90" as="geometry" />
        </mxCell>
        <mxCell id="iwWK1xglDD3d6xaMqNbU-11" value="1.2 Legal Advice" style="html=1;overflow=block;blockSpacing=1;whiteSpace=wrap;fontSize=16.7;fontColor=#3a414a;spacing=9;strokeColor=#3a414a;strokeOpacity=100;rounded=1;absoluteArcSize=1;arcSize=9;strokeWidth=0.8;lucidId=4w~t4RaieRg.;" vertex="1" parent="1">
          <mxGeometry x="-14" y="152" width="120" height="90" as="geometry" />
        </mxCell>
        <mxCell id="iwWK1xglDD3d6xaMqNbU-12" value="" style="html=1;jettySize=18;whiteSpace=wrap;overflow=block;blockSpacing=1;fontSize=13;strokeColor=#3a414a;strokeOpacity=100;strokeWidth=0.8;rounded=1;arcSize=12;edgeStyle=orthogonalEdgeStyle;startArrow=none;endArrow=block;endFill=1;exitX=0.142;exitY=1.004;exitPerimeter=0;entryX=-0.003;entryY=0.5;entryPerimeter=0;lucidId=4w~t0_rI0UjW;" edge="1" parent="1" source="iwWK1xglDD3d6xaMqNbU-2" target="iwWK1xglDD3d6xaMqNbU-10">
          <mxGeometry width="100" height="100" relative="1" as="geometry">
            <Array as="points" />
          </mxGeometry>
        </mxCell>
        <mxCell id="iwWK1xglDD3d6xaMqNbU-13" value="" style="html=1;jettySize=18;whiteSpace=wrap;overflow=block;blockSpacing=1;fontSize=13;strokeColor=#3a414a;strokeOpacity=100;strokeWidth=0.8;rounded=1;arcSize=12;edgeStyle=orthogonalEdgeStyle;startArrow=none;endArrow=block;endFill=1;exitX=0.142;exitY=1.004;exitPerimeter=0;entryX=-0.003;entryY=0.5;entryPerimeter=0;lucidId=4w~tqVxAxyoX;" edge="1" parent="1" source="iwWK1xglDD3d6xaMqNbU-2" target="iwWK1xglDD3d6xaMqNbU-11">
          <mxGeometry width="100" height="100" relative="1" as="geometry">
            <Array as="points" />
          </mxGeometry>
        </mxCell>
        <mxCell id="iwWK1xglDD3d6xaMqNbU-14" value="2.1 Guideline API Design" style="html=1;overflow=block;blockSpacing=1;whiteSpace=wrap;fontSize=16.7;fontColor=#3a414a;spacing=3.8;strokeColor=#3a414a;strokeOpacity=100;rounded=1;absoluteArcSize=1;arcSize=9;strokeWidth=0.8;lucidId=4w~t._bpM~Lc;" vertex="1" parent="1">
          <mxGeometry x="226" y="17" width="120" height="90" as="geometry" />
        </mxCell>
        <mxCell id="iwWK1xglDD3d6xaMqNbU-15" value="2.2 Form Design" style="html=1;overflow=block;blockSpacing=1;whiteSpace=wrap;fontSize=16.7;fontColor=#3a414a;spacing=9;strokeColor=#3a414a;strokeOpacity=100;rounded=1;absoluteArcSize=1;arcSize=9;strokeWidth=0.8;lucidId=4w~t_CMRTe7Z;" vertex="1" parent="1">
          <mxGeometry x="226" y="152" width="120" height="90" as="geometry" />
        </mxCell>
        <mxCell id="iwWK1xglDD3d6xaMqNbU-16" value="2.3 Database Design" style="html=1;overflow=block;blockSpacing=1;whiteSpace=wrap;fontSize=16.7;fontColor=#3a414a;spacing=9;strokeColor=#3a414a;strokeOpacity=100;rounded=1;absoluteArcSize=1;arcSize=9;strokeWidth=0.8;lucidId=4w~td8~z0L5I;" vertex="1" parent="1">
          <mxGeometry x="226" y="287" width="120" height="90" as="geometry" />
        </mxCell>
        <mxCell id="iwWK1xglDD3d6xaMqNbU-17" value="2.4 Results Design" style="html=1;overflow=block;blockSpacing=1;whiteSpace=wrap;fontSize=16.7;fontColor=#3a414a;spacing=9;strokeColor=#3a414a;strokeOpacity=100;rounded=1;absoluteArcSize=1;arcSize=9;strokeWidth=0.8;lucidId=4w~t5WuIVDGt;" vertex="1" parent="1">
          <mxGeometry x="226" y="422" width="120" height="90" as="geometry" />
        </mxCell>
        <mxCell id="iwWK1xglDD3d6xaMqNbU-18" value="3.1 Implement Framework" style="html=1;overflow=block;blockSpacing=1;whiteSpace=wrap;fontSize=16.7;fontColor=#3a414a;spacing=3.8;strokeColor=#3a414a;strokeOpacity=100;rounded=1;absoluteArcSize=1;arcSize=9;strokeWidth=0.8;lucidId=4w~teBxPyFC6;" vertex="1" parent="1">
          <mxGeometry x="496" y="17" width="120" height="90" as="geometry" />
        </mxCell>
        <mxCell id="iwWK1xglDD3d6xaMqNbU-19" value="3.2 Implement Frontend" style="html=1;overflow=block;blockSpacing=1;whiteSpace=wrap;fontSize=16.7;fontColor=#3a414a;spacing=3.8;strokeColor=#3a414a;strokeOpacity=100;rounded=1;absoluteArcSize=1;arcSize=9;strokeWidth=0.8;lucidId=4w~tPD4r6r6y;" vertex="1" parent="1">
          <mxGeometry x="496" y="152" width="120" height="90" as="geometry" />
        </mxCell>
        <mxCell id="iwWK1xglDD3d6xaMqNbU-20" value="3.2 Implement Backend" style="html=1;overflow=block;blockSpacing=1;whiteSpace=wrap;fontSize=16.7;fontColor=#3a414a;spacing=3.8;strokeColor=#3a414a;strokeOpacity=100;rounded=1;absoluteArcSize=1;arcSize=9;strokeWidth=0.8;lucidId=4w~t5c1RJA7v;" vertex="1" parent="1">
          <mxGeometry x="496" y="287" width="120" height="90" as="geometry" />
        </mxCell>
        <mxCell id="iwWK1xglDD3d6xaMqNbU-21" value="4.1 Prototype demonstration" style="html=1;overflow=block;blockSpacing=1;whiteSpace=wrap;fontSize=16.7;fontColor=#3a414a;spacing=3.8;strokeColor=#3a414a;strokeOpacity=100;rounded=1;absoluteArcSize=1;arcSize=9;strokeWidth=0.8;lucidId=4w~tIb62tVaJ;" vertex="1" parent="1">
          <mxGeometry x="706" y="17" width="120" height="90" as="geometry" />
        </mxCell>
        <mxCell id="iwWK1xglDD3d6xaMqNbU-22" value="4.2 Market the product launch" style="html=1;overflow=block;blockSpacing=1;whiteSpace=wrap;fontSize=16.7;fontColor=#3a414a;spacing=3.8;strokeColor=#3a414a;strokeOpacity=100;rounded=1;absoluteArcSize=1;arcSize=9;strokeWidth=0.8;lucidId=4w~tL7KWNvhj;" vertex="1" parent="1">
          <mxGeometry x="706" y="167" width="120" height="90" as="geometry" />
        </mxCell>
        <mxCell id="iwWK1xglDD3d6xaMqNbU-23" value="4.3 Launch the product" style="html=1;overflow=block;blockSpacing=1;whiteSpace=wrap;fontSize=16.7;fontColor=#3a414a;spacing=3.8;strokeColor=#3a414a;strokeOpacity=100;rounded=1;absoluteArcSize=1;arcSize=9;strokeWidth=0.8;lucidId=4w~tAuvePKSW;" vertex="1" parent="1">
          <mxGeometry x="706" y="287" width="120" height="90" as="geometry" />
        </mxCell>
        <mxCell id="iwWK1xglDD3d6xaMqNbU-24" value="" style="html=1;jettySize=18;whiteSpace=wrap;overflow=block;blockSpacing=1;fontSize=13;strokeColor=#3a414a;strokeOpacity=100;strokeWidth=0.8;rounded=1;arcSize=12;edgeStyle=orthogonalEdgeStyle;startArrow=none;endArrow=block;endFill=1;exitX=0.317;exitY=1.004;exitPerimeter=0;entryX=-0.003;entryY=0.5;entryPerimeter=0;lucidId=4w~t6h6gB7we;" edge="1" parent="1" source="iwWK1xglDD3d6xaMqNbU-3" target="iwWK1xglDD3d6xaMqNbU-14">
          <mxGeometry width="100" height="100" relative="1" as="geometry">
            <Array as="points" />
          </mxGeometry>
        </mxCell>
        <mxCell id="iwWK1xglDD3d6xaMqNbU-25" value="" style="html=1;jettySize=18;whiteSpace=wrap;overflow=block;blockSpacing=1;fontSize=13;strokeColor=#3a414a;strokeOpacity=100;strokeWidth=0.8;rounded=1;arcSize=12;edgeStyle=orthogonalEdgeStyle;startArrow=none;endArrow=block;endFill=1;exitX=0.317;exitY=1.004;exitPerimeter=0;entryX=-0.003;entryY=0.5;entryPerimeter=0;lucidId=4w~tCFxo-cvO;" edge="1" parent="1" source="iwWK1xglDD3d6xaMqNbU-3" target="iwWK1xglDD3d6xaMqNbU-15">
          <mxGeometry width="100" height="100" relative="1" as="geometry">
            <Array as="points" />
          </mxGeometry>
        </mxCell>
        <mxCell id="iwWK1xglDD3d6xaMqNbU-26" value="" style="html=1;jettySize=18;whiteSpace=wrap;overflow=block;blockSpacing=1;fontSize=13;strokeColor=#3a414a;strokeOpacity=100;strokeWidth=0.8;rounded=1;arcSize=12;edgeStyle=orthogonalEdgeStyle;startArrow=none;endArrow=block;endFill=1;exitX=0.317;exitY=1.004;exitPerimeter=0;entryX=-0.003;entryY=0.5;entryPerimeter=0;lucidId=4w~tFr1DQIYG;" edge="1" parent="1" source="iwWK1xglDD3d6xaMqNbU-3" target="iwWK1xglDD3d6xaMqNbU-16">
          <mxGeometry width="100" height="100" relative="1" as="geometry">
            <Array as="points" />
          </mxGeometry>
        </mxCell>
        <mxCell id="iwWK1xglDD3d6xaMqNbU-27" value="" style="html=1;jettySize=18;whiteSpace=wrap;overflow=block;blockSpacing=1;fontSize=13;strokeColor=#3a414a;strokeOpacity=100;strokeWidth=0.8;rounded=1;arcSize=12;edgeStyle=orthogonalEdgeStyle;startArrow=none;endArrow=block;endFill=1;exitX=0.317;exitY=1.004;exitPerimeter=0;entryX=-0.003;entryY=0.5;entryPerimeter=0;lucidId=4w~t.2ZFNBrP;" edge="1" parent="1" source="iwWK1xglDD3d6xaMqNbU-3" target="iwWK1xglDD3d6xaMqNbU-17">
          <mxGeometry width="100" height="100" relative="1" as="geometry">
            <Array as="points" />
          </mxGeometry>
        </mxCell>
        <mxCell id="iwWK1xglDD3d6xaMqNbU-28" value="" style="html=1;jettySize=18;whiteSpace=wrap;overflow=block;blockSpacing=1;fontSize=13;strokeColor=#3a414a;strokeOpacity=100;strokeWidth=0.8;rounded=1;arcSize=12;edgeStyle=orthogonalEdgeStyle;startArrow=none;endArrow=block;endFill=1;exitX=0.217;exitY=1.004;exitPerimeter=0;entryX=-0.003;entryY=0.5;entryPerimeter=0;lucidId=4w~tfV0NRdZM;" edge="1" parent="1" source="iwWK1xglDD3d6xaMqNbU-4" target="iwWK1xglDD3d6xaMqNbU-18">
          <mxGeometry width="100" height="100" relative="1" as="geometry">
            <Array as="points" />
          </mxGeometry>
        </mxCell>
        <mxCell id="iwWK1xglDD3d6xaMqNbU-29" value="" style="html=1;jettySize=18;whiteSpace=wrap;overflow=block;blockSpacing=1;fontSize=13;strokeColor=#3a414a;strokeOpacity=100;strokeWidth=0.8;rounded=1;arcSize=12;edgeStyle=orthogonalEdgeStyle;startArrow=none;endArrow=block;endFill=1;exitX=0.217;exitY=1.004;exitPerimeter=0;entryX=-0.003;entryY=0.5;entryPerimeter=0;lucidId=4w~t2.pcYmzu;" edge="1" parent="1" source="iwWK1xglDD3d6xaMqNbU-4" target="iwWK1xglDD3d6xaMqNbU-19">
          <mxGeometry width="100" height="100" relative="1" as="geometry">
            <Array as="points" />
          </mxGeometry>
        </mxCell>
        <mxCell id="iwWK1xglDD3d6xaMqNbU-30" value="" style="html=1;jettySize=18;whiteSpace=wrap;overflow=block;blockSpacing=1;fontSize=13;strokeColor=#3a414a;strokeOpacity=100;strokeWidth=0.8;rounded=1;arcSize=12;edgeStyle=orthogonalEdgeStyle;startArrow=none;endArrow=block;endFill=1;exitX=0.217;exitY=1.004;exitPerimeter=0;entryX=-0.003;entryY=0.5;entryPerimeter=0;lucidId=4w~t6Ercy4jQ;" edge="1" parent="1" source="iwWK1xglDD3d6xaMqNbU-4" target="iwWK1xglDD3d6xaMqNbU-20">
          <mxGeometry width="100" height="100" relative="1" as="geometry">
            <Array as="points" />
          </mxGeometry>
        </mxCell>
        <mxCell id="iwWK1xglDD3d6xaMqNbU-31" value="" style="html=1;jettySize=18;whiteSpace=wrap;overflow=block;blockSpacing=1;fontSize=13;strokeColor=#3a414a;strokeOpacity=100;strokeWidth=0.8;rounded=1;arcSize=12;edgeStyle=orthogonalEdgeStyle;startArrow=none;endArrow=block;endFill=1;exitX=0.158;exitY=1.004;exitPerimeter=0;entryX=-0.003;entryY=0.5;entryPerimeter=0;lucidId=4w~tsvLx9x79;" edge="1" parent="1" source="iwWK1xglDD3d6xaMqNbU-5" target="iwWK1xglDD3d6xaMqNbU-21">
          <mxGeometry width="100" height="100" relative="1" as="geometry">
            <Array as="points" />
          </mxGeometry>
        </mxCell>
        <mxCell id="iwWK1xglDD3d6xaMqNbU-32" value="" style="html=1;jettySize=18;whiteSpace=wrap;overflow=block;blockSpacing=1;fontSize=13;strokeColor=#3a414a;strokeOpacity=100;strokeWidth=0.8;rounded=1;arcSize=12;edgeStyle=orthogonalEdgeStyle;startArrow=none;endArrow=block;endFill=1;exitX=0.158;exitY=1.004;exitPerimeter=0;entryX=-0.003;entryY=0.5;entryPerimeter=0;lucidId=4w~t2vykI1Mp;" edge="1" parent="1" source="iwWK1xglDD3d6xaMqNbU-5" target="iwWK1xglDD3d6xaMqNbU-22">
          <mxGeometry width="100" height="100" relative="1" as="geometry">
            <Array as="points" />
          </mxGeometry>
        </mxCell>
        <mxCell id="iwWK1xglDD3d6xaMqNbU-33" value="" style="html=1;jettySize=18;whiteSpace=wrap;overflow=block;blockSpacing=1;fontSize=13;strokeColor=#3a414a;strokeOpacity=100;strokeWidth=0.8;rounded=1;arcSize=12;edgeStyle=orthogonalEdgeStyle;startArrow=none;endArrow=block;endFill=1;exitX=0.158;exitY=1.004;exitPerimeter=0;entryX=-0.003;entryY=0.5;entryPerimeter=0;lucidId=4w~tgVYeoSA9;" edge="1" parent="1" source="iwWK1xglDD3d6xaMqNbU-5" target="iwWK1xglDD3d6xaMqNbU-23">
          <mxGeometry width="100" height="100" relative="1" as="geometry">
            <Array as="points" />
          </mxGeometry>
        </mxCell>
      </root>
    </mxGraphModel>
  </diagram>
</mxfile>
